<?xml version="1.0" standalone="no"?>
<svg xmlns:xlink="http://www.w3.org/1999/xlink" id="wave" style="transform:rotate(0deg); transition: 0.3s" viewBox="0 0 1440 490" version="1.1" xmlns="http://www.w3.org/2000/svg"><defs><linearGradient id="sw-gradient-0" x1="0" x2="0" y1="1" y2="0"><stop stop-color="rgba(255, 97.828, 47.349, 1)" offset="0%"/><stop stop-color="rgba(255, 112.004, 11, 1)" offset="100%"/></linearGradient></defs><path style="transform:translate(0, 0px); opacity:1" fill="url(#sw-gradient-0)" d="M0,294L120,285.8C240,278,480,261,720,236.8C960,212,1200,180,1440,163.3C1680,147,1920,147,2160,147C2400,147,2640,147,2880,155.2C3120,163,3360,180,3600,228.7C3840,278,4080,359,4320,383.8C4560,408,4800,376,5040,334.8C5280,294,5520,245,5760,196C6000,147,6240,98,6480,81.7C6720,65,6960,82,7200,73.5C7440,65,7680,33,7920,40.8C8160,49,8400,98,8640,138.8C8880,180,9120,212,9360,187.8C9600,163,9840,82,10080,106.2C10320,131,10560,261,10800,285.8C11040,310,11280,229,11520,163.3C11760,98,12000,49,12240,89.8C12480,131,12720,261,12960,310.3C13200,359,13440,327,13680,269.5C13920,212,14160,131,14400,106.2C14640,82,14880,114,15120,171.5C15360,229,15600,310,15840,343C16080,376,16320,359,16560,326.7C16800,294,17040,245,17160,220.5L17280,196L17280,490L17160,490C17040,490,16800,490,16560,490C16320,490,16080,490,15840,490C15600,490,15360,490,15120,490C14880,490,14640,490,14400,490C14160,490,13920,490,13680,490C13440,490,13200,490,12960,490C12720,490,12480,490,12240,490C12000,490,11760,490,11520,490C11280,490,11040,490,10800,490C10560,490,10320,490,10080,490C9840,490,9600,490,9360,490C9120,490,8880,490,8640,490C8400,490,8160,490,7920,490C7680,490,7440,490,7200,490C6960,490,6720,490,6480,490C6240,490,6000,490,5760,490C5520,490,5280,490,5040,490C4800,490,4560,490,4320,490C4080,490,3840,490,3600,490C3360,490,3120,490,2880,490C2640,490,2400,490,2160,490C1920,490,1680,490,1440,490C1200,490,960,490,720,490C480,490,240,490,120,490L0,490Z"/><defs><linearGradient id="sw-gradient-1" x1="0" x2="0" y1="1" y2="0"><stop stop-color="rgba(255, 0, 0, 1)" offset="0%"/><stop stop-color="rgba(255, 95.471, 11, 1)" offset="100%"/></linearGradient></defs><path style="transform:translate(0, 50px); opacity:0.9" fill="url(#sw-gradient-1)" d="M0,98L120,130.7C240,163,480,229,720,277.7C960,327,1200,359,1440,351.2C1680,343,1920,294,2160,236.8C2400,180,2640,114,2880,147C3120,180,3360,310,3600,359.3C3840,408,4080,376,4320,351.2C4560,327,4800,310,5040,277.7C5280,245,5520,196,5760,147C6000,98,6240,49,6480,24.5C6720,0,6960,0,7200,0C7440,0,7680,0,7920,32.7C8160,65,8400,131,8640,196C8880,261,9120,327,9360,294C9600,261,9840,131,10080,89.8C10320,49,10560,98,10800,155.2C11040,212,11280,278,11520,318.5C11760,359,12000,376,12240,334.8C12480,294,12720,196,12960,187.8C13200,180,13440,261,13680,285.8C13920,310,14160,278,14400,269.5C14640,261,14880,278,15120,294C15360,310,15600,327,15840,285.8C16080,245,16320,147,16560,106.2C16800,65,17040,82,17160,89.8L17280,98L17280,490L17160,490C17040,490,16800,490,16560,490C16320,490,16080,490,15840,490C15600,490,15360,490,15120,490C14880,490,14640,490,14400,490C14160,490,13920,490,13680,490C13440,490,13200,490,12960,490C12720,490,12480,490,12240,490C12000,490,11760,490,11520,490C11280,490,11040,490,10800,490C10560,490,10320,490,10080,490C9840,490,9600,490,9360,490C9120,490,8880,490,8640,490C8400,490,8160,490,7920,490C7680,490,7440,490,7200,490C6960,490,6720,490,6480,490C6240,490,6000,490,5760,490C5520,490,5280,490,5040,490C4800,490,4560,490,4320,490C4080,490,3840,490,3600,490C3360,490,3120,490,2880,490C2640,490,2400,490,2160,490C1920,490,1680,490,1440,490C1200,490,960,490,720,490C480,490,240,490,120,490L0,490Z"/></svg>